<svg width="80" height="80" viewBox="0 0 80 80" fill="none" xmlns="http://www.w3.org/2000/svg">
<path d="M70 9.97317V70.0265C69.993 70.9019 69.6419 71.7394 69.0226 72.3581C68.4033 72.9768 67.5654 73.3271 66.69 73.3332H13.31C12.4327 73.3332 11.5913 72.9849 10.9707 72.3649C10.35 71.7449 10.0009 70.9038 10 70.0265V9.97317C10.007 9.09777 10.3581 8.26026 10.9774 7.64155C11.5967 7.02284 12.4346 6.6726 13.31 6.6665H66.69C68.5167 6.6665 70 8.1465 70 9.97317ZM63.3333 13.3332H16.6667V66.6665H63.3333V13.3332Z" fill="#29292E"/>
<path d="M32.7165 42.1415L46.8598 28.0015L51.5732 32.7148L32.7165 51.5715L28 46.8548L32.7165 42.1415Z" fill="#DC1637"/>
<path d="M42.1415 46.8567L28.0015 32.7134L32.7148 28.0001L51.5715 46.8567L46.8548 51.5732L42.1415 46.8567Z" fill="#DC1637"/>
</svg>
