<svg width="80" height="80" viewBox="0 0 80 80" fill="none" xmlns="http://www.w3.org/2000/svg">
<path d="M56.6667 13.6667H70C70.8841 13.6667 71.7319 14.0179 72.357 14.643C72.9822 15.2681 73.3333 16.1159 73.3333 17V70.3333C73.3333 71.2174 72.9822 72.0652 72.357 72.6904C71.7319 73.3155 70.8841 73.6667 70 73.6667H10C9.11595 73.6667 8.2681 73.3155 7.64298 72.6904C7.01786 72.0652 6.66667 71.2174 6.66667 70.3333V17C6.66667 16.1159 7.01786 15.2681 7.64298 14.643C8.2681 14.0179 9.11595 13.6667 10 13.6667H23.3333V7H30V13.6667H50V7H56.6667V13.6667ZM50 20.3333H30V27H23.3333V20.3333H13.3333V33.6667H66.6667V20.3333H56.6667V27H50V20.3333ZM66.6667 40.3333H13.3333V67H66.6667V40.3333Z" fill="#DC1637"/>
</svg>
