<svg width="80" height="80" viewBox="0 0 80 80" fill="none" xmlns="http://www.w3.org/2000/svg">
<path d="M63.3334 63.3333H16.6667V66.6667C16.6667 67.5507 16.3155 68.3986 15.6904 69.0237C15.0653 69.6488 14.2174 70 13.3334 70H10C9.11597 70 8.26812 69.6488 7.643 69.0237C7.01788 68.3986 6.66669 67.5507 6.66669 66.6667V33.3333L14.9334 14.04C15.4478 12.84 16.3032 11.8175 17.3935 11.0993C18.4839 10.3811 19.7611 9.99884 21.0667 10H58.9334C60.2378 10.0001 61.5136 10.383 62.6026 11.1011C63.6917 11.8192 64.5461 12.841 65.06 14.04L73.3334 33.3333V66.6667C73.3334 67.5507 72.9822 68.3986 72.3571 69.0237C71.7319 69.6488 70.8841 70 70 70H66.6667C65.7826 70 64.9348 69.6488 64.3097 69.0237C63.6846 68.3986 63.3334 67.5507 63.3334 66.6667V63.3333ZM66.6667 40H13.3334V56.6667H66.6667V40ZM13.92 33.3333H66.08L58.9367 16.6667H21.0667L13.92 33.3333ZM21.6667 53.3333C20.3406 53.3333 19.0688 52.8065 18.1312 51.8689C17.1935 50.9312 16.6667 49.6594 16.6667 48.3333C16.6667 47.0073 17.1935 45.7355 18.1312 44.7978C19.0688 43.8601 20.3406 43.3333 21.6667 43.3333C22.9928 43.3333 24.2645 43.8601 25.2022 44.7978C26.1399 45.7355 26.6667 47.0073 26.6667 48.3333C26.6667 49.6594 26.1399 50.9312 25.2022 51.8689C24.2645 52.8065 22.9928 53.3333 21.6667 53.3333ZM58.3334 53.3333C57.0073 53.3333 55.7355 52.8065 54.7978 51.8689C53.8601 50.9312 53.3334 49.6594 53.3334 48.3333C53.3334 47.0073 53.8601 45.7355 54.7978 44.7978C55.7355 43.8601 57.0073 43.3333 58.3334 43.3333C59.6594 43.3333 60.9312 43.8601 61.8689 44.7978C62.8066 45.7355 63.3334 47.0073 63.3334 48.3333C63.3334 49.6594 62.8066 50.9312 61.8689 51.8689C60.9312 52.8065 59.6594 53.3333 58.3334 53.3333Z" fill="#DC1637"/>
</svg>
