<svg width="32" height="32" viewBox="0 0 32 32" fill="none" xmlns="http://www.w3.org/2000/svg">
<path d="M16 2C23.7322 2 30 8.2678 30 16C30 23.7322 23.7322 30 16 30C8.2678 30 2 23.7322 2 16C2 8.2678 8.2678 2 16 2ZM10.4 17.4L4.8868 17.4014C5.19871 19.8685 6.3224 22.1618 8.08092 23.92C9.83944 25.6783 12.1329 26.8016 14.6 27.1132V21.6C13.4861 21.6 12.4178 21.1575 11.6302 20.3698C10.8425 19.5822 10.4 18.5139 10.4 17.4ZM27.1132 17.4014L21.6 17.4C21.6 18.5139 21.1575 19.5822 20.3698 20.3698C19.5822 21.1575 18.5139 21.6 17.4 21.6L17.4014 27.1132C19.8683 26.8014 22.1614 25.6779 23.9196 23.9196C25.6779 22.1614 26.8014 19.8683 27.1132 17.4014ZM18.8 16H13.2V17.4C13.2 17.7713 13.3475 18.1274 13.6101 18.3899C13.8726 18.6525 14.2287 18.8 14.6 18.8H17.4C17.7713 18.8 18.1274 18.6525 18.3899 18.3899C18.6525 18.1274 18.8 17.7713 18.8 17.4V16ZM16 4.8C13.2719 4.80005 10.6377 5.79566 8.59155 7.6C6.54543 9.40435 5.2281 11.8934 4.8868 14.6H10.4C10.4 14.2287 10.5475 13.8726 10.8101 13.6101C11.0726 13.3475 11.4287 13.2 11.8 13.2H20.2C20.5713 13.2 20.9274 13.3475 21.1899 13.6101C21.4525 13.8726 21.6 14.2287 21.6 14.6H27.1132C26.7719 11.8934 25.4546 9.40435 23.4084 7.6C21.3623 5.79566 18.7281 4.80005 16 4.8Z" fill="#47474D"/>
</svg>
