<svg width="24" height="24" viewBox="0 0 24 24" fill="none" xmlns="http://www.w3.org/2000/svg">
<path d="M11.9995 18.1546C15.8289 18.1546 19.1784 19.7458 21 22.12L19.0738 23C17.5909 21.3027 14.9766 20.1752 11.9995 20.1752C9.02231 20.1752 6.40801 21.3027 4.92517 23L3 22.119C4.82165 19.7448 8.17005 18.1546 11.9995 18.1546ZM11.9995 1C13.3862 1 14.7161 1.53221 15.6967 2.47956C16.6772 3.4269 17.2281 4.71178 17.2281 6.05153V11.0824C17.228 12.3842 16.7078 13.6356 15.7759 14.5759C14.8441 15.5161 13.5725 16.0724 12.2264 16.1289L11.9995 16.134C10.6128 16.134 9.28285 15.6018 8.30229 14.6544C7.32174 13.7071 6.77087 12.4222 6.77087 11.0824V6.05153C6.77095 4.74978 7.29116 3.49832 8.22302 2.55812C9.15488 1.61791 10.4265 1.06155 11.7726 1.00505L11.9995 1ZM11.9995 3.02061C11.1993 3.02057 10.4293 3.31595 9.84711 3.84632C9.26491 4.37668 8.91449 5.10195 8.86754 5.87371L8.86231 6.05153V11.0824C8.86153 11.8714 9.17919 12.6295 9.7478 13.1958C10.3164 13.7621 11.0912 14.0918 11.9074 14.115C12.7237 14.1381 13.5171 13.8529 14.1191 13.3198C14.7211 12.7867 15.0843 12.0479 15.1314 11.2603L15.1366 11.0824V6.05153C15.1366 5.24768 14.8061 4.47675 14.2178 3.90834C13.6295 3.33994 12.8315 3.02061 11.9995 3.02061Z" fill="#41414D"/>
</svg>
